<mxfile host="65bd71144e">
    <diagram id="iynOfSGFc4vJTPNdbjPA" name="Страница 1">
        <mxGraphModel dx="837" dy="488" grid="1" gridSize="10" guides="1" tooltips="1" connect="1" arrows="1" fold="1" page="1" pageScale="1" pageWidth="827" pageHeight="1169" math="0" shadow="0">
            <root>
                <mxCell id="0"/>
                <mxCell id="1" parent="0"/>
                <mxCell id="2" value="START" style="rounded=1;whiteSpace=wrap;html=1;" parent="1" vertex="1">
                    <mxGeometry x="340" y="91" width="80" height="30" as="geometry"/>
                </mxCell>
                <mxCell id="3" value="" style="endArrow=classic;html=1;exitX=0.5;exitY=1;exitDx=0;exitDy=0;" parent="1" source="2" edge="1">
                    <mxGeometry width="50" height="50" relative="1" as="geometry">
                        <mxPoint x="390" y="241" as="sourcePoint"/>
                        <mxPoint x="380" y="161" as="targetPoint"/>
                    </mxGeometry>
                </mxCell>
                <mxCell id="4" value="int[] Array = CetArray method" style="rounded=0;whiteSpace=wrap;html=1;" parent="1" vertex="1">
                    <mxGeometry x="299.5" y="161" width="165" height="20" as="geometry"/>
                </mxCell>
                <mxCell id="5" value="" style="endArrow=classic;html=1;exitX=0.5;exitY=1;exitDx=0;exitDy=0;" parent="1" edge="1">
                    <mxGeometry width="50" height="50" relative="1" as="geometry">
                        <mxPoint x="379.5" y="182" as="sourcePoint"/>
                        <mxPoint x="379.5" y="222" as="targetPoint"/>
                        <Array as="points">
                            <mxPoint x="380" y="222"/>
                        </Array>
                    </mxGeometry>
                </mxCell>
                <mxCell id="6" value="int [] EvenIntegers = EvenIntegers method (int [] Array)" style="rounded=0;whiteSpace=wrap;html=1;" parent="1" vertex="1">
                    <mxGeometry x="287" y="221" width="190" height="39" as="geometry"/>
                </mxCell>
                <mxCell id="7" value="Print Array to Console method" style="rounded=0;whiteSpace=wrap;html=1;" parent="1" vertex="1">
                    <mxGeometry x="325" y="291" width="110" height="40" as="geometry"/>
                </mxCell>
                <mxCell id="8" value="" style="endArrow=classic;html=1;exitX=0.5;exitY=1;exitDx=0;exitDy=0;" parent="1" edge="1">
                    <mxGeometry width="50" height="50" relative="1" as="geometry">
                        <mxPoint x="379.5" y="251" as="sourcePoint"/>
                        <mxPoint x="379.5" y="291" as="targetPoint"/>
                        <Array as="points">
                            <mxPoint x="380" y="291"/>
                        </Array>
                    </mxGeometry>
                </mxCell>
                <mxCell id="11" value="END" style="rounded=1;whiteSpace=wrap;html=1;" parent="1" vertex="1">
                    <mxGeometry x="342" y="361" width="80" height="30" as="geometry"/>
                </mxCell>
                <mxCell id="12" value="" style="endArrow=classic;html=1;" parent="1" edge="1">
                    <mxGeometry width="50" height="50" relative="1" as="geometry">
                        <mxPoint x="381" y="331" as="sourcePoint"/>
                        <mxPoint x="380.5" y="362" as="targetPoint"/>
                        <Array as="points">
                            <mxPoint x="381" y="362"/>
                        </Array>
                    </mxGeometry>
                </mxCell>
            </root>
        </mxGraphModel>
    </diagram>
</mxfile>